<svg fill="none" height="32" viewBox="0 0 32 32" width="32" xmlns="http://www.w3.org/2000/svg"><path d="m4.196 5.344c-.196.561-.196 1.26-.196 2.656v16c0 1.396 0 2.095.196 2.656.17365.4964.45694.9473.82882 1.3192.37187.3719.82277.6551 1.31918.8288.561.196 1.26.196 2.656.196s2.095 0 2.656-.196c.4964-.1737.9473-.4569 1.3192-.8288s.6551-.8228.8288-1.3192c.196-.561.196-1.26.196-2.656v-16c0-1.396 0-2.095-.196-2.656-.1737-.49641-.4569-.94731-.8288-1.31918-.3719-.37188-.8228-.65517-1.3192-.82882-.561-.196-1.26-.196-2.656-.196s-2.095 0-2.656.196c-.49641.17365-.94731.45694-1.31918.82882-.37188.37187-.65517.82277-.82882 1.31918zm14 0c-.196.561-.196 1.26-.196 2.656v16c0 1.396 0 2.095.196 2.656.1737.4964.4569.9473.8288 1.3192s.8228.6551 1.3192.8288c.561.196 1.26.196 2.656.196s2.095 0 2.656-.196c.4964-.1737.9473-.4569 1.3192-.8288s.6552-.8228.8288-1.3192c.196-.561.196-1.26.196-2.656v-16c0-1.396 0-2.095-.196-2.656-.1736-.49641-.4569-.94731-.8288-1.31918-.3719-.37188-.8228-.65517-1.3192-.82882-.561-.196-1.26-.196-2.656-.196s-2.095 0-2.656.196c-.4964.17365-.9473.45694-1.3192.82882-.3719.37187-.6551.82277-.8288 1.31918z" fill="#eceae9"/></svg>